HIERARCHY
ROOT Hips
{
	OFFSET 0.000000 0.000000 0.000000 
	CHANNELS 6 Xposition Yposition Zposition Zrotation Yrotation Xrotation
	JOINT LeftUpLeg
	{
		OFFSET 1.363060 -1.794630 0.839290 
		CHANNELS 3 Zrotation Yrotation Xrotation
		JOINT LeftLeg
		{
			OFFSET 2.448110 -6.726130 0.000000 
			CHANNELS 3 Zrotation Yrotation Xrotation
			JOINT LeftFoot
			{
				OFFSET 2.562200 -7.039590 0.000000 
				CHANNELS 3 Zrotation Yrotation Xrotation
				JOINT LeftToeBase
				{
					OFFSET 0.157640 -0.433110 2.322550 
					CHANNELS 3 Zrotation Yrotation Xrotation
					End Site
					{
						OFFSET 0.000000 0.000000 0.000000 
					}
				}
			}
		}
	}
	JOINT RightUpLeg
	{
		OFFSET -1.305520 -1.794630 0.839290 
		CHANNELS 3 Zrotation Yrotation Xrotation
		JOINT RightLeg
		{
			OFFSET -2.542530 -6.985550 0.000000 
			CHANNELS 3 Zrotation Yrotation Xrotation
			JOINT RightFoot
			{
				OFFSET -2.568260 -7.056230 0.000000 
				CHANNELS 3 Zrotation Yrotation Xrotation
				JOINT RightToeBase
				{
					OFFSET -0.164730 -0.452590 2.363150 
					CHANNELS 3 Zrotation Yrotation Xrotation
					End Site
					{
						OFFSET 0.000000 0.000000 0.000000 
					}
				}
			}
		}
	}
	JOINT Spine
	{
		OFFSET 0.028270 2.035590 -0.193380 
		CHANNELS 3 Zrotation Yrotation Xrotation
		JOINT Spine1
		{
			OFFSET 0.056720 2.048850 -0.042750 
			CHANNELS 3 Zrotation Yrotation Xrotation
			JOINT Neck1
			{
				OFFSET -0.054170 1.746240 0.172020 
				CHANNELS 3 Zrotation Yrotation Xrotation
				JOINT Head
				{
					OFFSET 0.104070 1.761360 -0.123970 
					CHANNELS 3 Zrotation Yrotation Xrotation
					End Site
					{
						OFFSET 0.000000 0.000000 0.000000 
					}
				}
			}
			JOINT LeftArm
			{
				OFFSET 3.362410 1.200890 -0.311210 
				CHANNELS 3 Zrotation Yrotation Xrotation
				JOINT LeftForeArm
				{
					OFFSET 4.983000 -0.000000 -0.000000 
					CHANNELS 3 Zrotation Yrotation Xrotation
					JOINT LeftHand
					{
						OFFSET 3.483560 -0.000000 -0.000000 
						CHANNELS 3 Zrotation Yrotation Xrotation
						JOINT LeftHandIndex1
						{
							OFFSET 0.715260 -0.000000 -0.000000 
							CHANNELS 3 Zrotation Yrotation Xrotation
							End Site
							{
								OFFSET 0.000000 0.000000 0.000000 
							}
						}
					}
				}
			}
			JOINT RightArm
			{
				OFFSET -3.136600 1.374050 -0.404650 
				CHANNELS 3 Zrotation Yrotation Xrotation
				JOINT RightForeArm
				{
					OFFSET -5.241900 -0.000000 -0.000000 
					CHANNELS 3 Zrotation Yrotation Xrotation
					JOINT RightHand
					{
						OFFSET -3.444170 -0.000000 -0.000000 
						CHANNELS 3 Zrotation Yrotation Xrotation
						JOINT RightHandIndex1
						{
							OFFSET -0.622530 -0.000000 -0.000000 
							CHANNELS 3 Zrotation Yrotation Xrotation
							End Site
							{
								OFFSET 0.000000 0.000000 0.000000 
							}
						}
					}
				}
			}
		}
	}
}
MOTION
Frames: 18
Frame Time: 0.041667
1.167614 17.838433 -22.067301 13.015980 -6.159351 3.567203 -32.444819 4.982098 -10.695035 -1.035408 3.435726 7.592056 -2.197672 13.605521 7.704252 0.014500 0.776200 2.133200 -7.725730 5.437107 -20.901328 -14.136635 -19.188362 69.269993 2.456626 -19.967279 18.333615 -0.073400 -1.748300 4.810400 9.970949 1.639042 1.333075 8.853616 0.877000 -3.944463 -10.123478 1.515469 21.686409 -9.165600 0.867600 14.436600 -88.515668 -3.007978 51.396768 28.442959 -39.202026 -9.382832 0.086320 0.239598 -3.083577 -7.125000 0.000000 0.000000 62.761783 -2.395532 -4.269370 -21.151469 31.006663 -5.650806 0.107198 -0.571847 -16.080669 7.125000 0.000000 0.000000 
1.178230 17.831686 -21.972852 13.061408 -6.130025 3.541718 -32.534542 4.888012 -10.573501 -1.005872 3.618203 8.097531 -2.269858 13.716129 7.185576 0.005100 0.461800 1.269000 -7.782178 5.438117 -22.020529 -14.239209 -19.212219 69.713121 2.682941 -19.745431 16.590108 -0.059400 -1.572800 4.326400 9.993542 1.526743 1.290848 8.964146 0.823558 -3.972861 -10.200817 1.652308 21.721236 -9.181600 0.922100 14.460400 -88.524478 -3.275085 50.558366 28.699509 -39.450402 -9.540974 0.091244 0.244409 -3.246103 -7.125000 0.000000 0.000000 62.955594 -2.854368 -4.222689 -21.081649 30.921412 -5.615069 0.108047 -0.572391 -16.036531 7.125000 0.000000 0.000000 
1.187258 17.824345 -21.878800 13.111868 -6.087773 3.526016 -32.619331 4.778751 -10.449239 -0.975702 3.796346 8.591864 -2.338664 13.822692 6.675929 0.002800 0.338800 0.930800 -7.830646 5.461154 -23.094212 -14.272976 -19.215406 69.957882 2.842155 -19.393103 14.986925 -0.047700 -1.409100 3.875100 10.011312 1.427074 1.240686 9.072559 0.777291 -4.011428 -10.272679 1.761300 21.759904 -9.201700 0.966700 14.482400 -88.506395 -3.544448 49.792069 28.961778 -39.701326 -9.703455 0.096245 0.249945 -3.417366 -7.125000 0.000000 0.000000 63.158659 -3.337070 -4.196545 -20.999957 30.821923 -5.574236 0.108966 -0.573275 -15.967693 7.125000 0.000000 0.000000 
1.194897 17.815812 -21.785045 13.184009 -6.034332 3.519847 -32.726272 4.680525 -10.216243 -0.956627 3.892938 8.860885 -2.393527 13.925482 6.282240 0.006100 0.503800 1.384400 -7.893418 5.498547 -24.119008 -14.232170 -19.197731 69.987552 2.939488 -18.903730 13.495132 -0.036500 -1.233500 3.391600 10.027832 1.331461 1.188502 9.196714 0.733669 -4.055987 -10.335546 1.857886 21.779552 -9.215400 1.003600 14.493600 -88.479784 -3.811641 49.068112 29.253248 -39.976318 -9.883897 0.098855 0.256883 -3.687390 -7.125000 0.000000 0.000000 63.350212 -3.822575 -4.180722 -20.904929 30.706338 -5.527082 0.109741 -0.574248 -15.852735 7.125000 0.000000 0.000000 
1.201643 17.805991 -21.691489 13.275841 -5.963244 3.523213 -32.846755 4.556392 -9.994969 -0.935665 3.999746 9.158414 -2.449026 14.028451 5.870373 0.017700 0.859000 2.361000 -7.970505 5.538441 -25.100254 -14.127862 -19.160776 69.834422 2.989653 -18.298081 12.042833 -0.024600 -1.012700 2.783800 10.040669 1.234149 1.133681 9.326636 0.689672 -4.097019 -10.383561 1.937062 21.802003 -9.221200 1.032200 14.505300 -88.435727 -4.078656 48.406815 29.559422 -40.261515 -10.074509 0.101674 0.264442 -3.978882 -7.125000 0.000000 0.000000 63.535294 -4.321873 -4.160232 -20.808164 30.587785 -5.478779 0.110433 -0.574971 -15.730029 7.125000 0.000000 0.000000 
1.207398 17.794383 -21.597834 13.394310 -5.888062 3.527938 -32.990624 4.421327 -9.787388 -0.911683 4.119424 9.491212 -2.506470 14.138841 5.444780 0.035600 1.217500 3.347400 -8.069286 5.588972 -26.031945 -13.963876 -19.104833 69.505801 3.007648 -17.617689 10.575040 -0.012800 -0.731600 2.010600 10.048358 1.135728 1.087601 9.463795 0.645274 -4.129904 -10.425515 2.017712 21.819130 -9.223300 1.059400 14.523600 -88.383524 -4.348267 47.783277 29.893429 -40.568496 -10.283623 0.104257 0.272204 -4.326676 -7.125000 0.000000 0.000000 63.710237 -4.801381 -4.155989 -20.698366 30.453199 -5.423855 0.110575 -0.575228 -15.560203 7.125000 0.000000 0.000000 
1.212259 17.781287 -21.504477 13.526897 -5.809642 3.536978 -33.174770 4.429696 -9.662026 -0.883609 4.250033 9.865270 -2.525260 14.090783 5.017232 0.066700 1.665800 4.582900 -8.174285 5.651693 -26.917179 -13.745280 -19.029305 69.007956 3.008241 -16.926651 9.071215 -0.003200 -0.366800 1.007900 10.051352 1.041589 1.036485 9.599756 0.604095 -4.171097 -10.474794 2.092419 21.838630 -9.230900 1.083900 14.542200 -88.311412 -4.595807 47.215543 30.251576 -40.891640 -10.508223 0.105428 0.279572 -4.682458 -7.125000 0.000000 0.000000 63.883412 -5.313983 -4.144026 -20.594249 30.323890 -5.371265 0.110395 -0.575262 -15.363812 7.125000 0.000000 0.000000 
1.216327 17.766604 -21.411417 13.655578 -5.751124 3.550065 -33.353738 4.449284 -9.564456 -0.852338 4.392671 10.272588 -2.545890 14.052235 4.581415 0.058300 1.558100 4.285800 -8.267374 5.750916 -27.761242 -13.476102 -18.934428 68.344361 3.002745 -16.285361 7.548462 -0.000000 0.012300 -0.033800 10.048161 0.964157 1.003703 9.715952 0.570301 -4.194277 -10.538436 2.173302 21.848298 -9.251500 1.110000 14.571900 -88.210592 -4.861686 46.707365 30.622154 -41.221391 -10.742957 0.108795 0.285391 -4.975174 -7.125000 0.000000 0.000000 64.073379 -5.800670 -4.193120 -20.476234 30.177958 -5.312065 0.109379 -0.574695 -15.105413 7.125000 0.000000 0.000000 
1.219601 17.751722 -21.318853 13.761454 -5.700326 3.570322 -33.503022 4.467379 -9.485248 -0.819177 4.542745 10.700432 -2.568618 14.023180 4.136004 0.048800 1.425300 3.920000 -8.323303 5.876594 -28.568352 -13.159860 -18.819040 67.515473 3.004003 -15.758910 6.035162 -0.003800 0.399500 -1.097700 10.051553 0.899127 0.962378 9.825361 0.543455 -4.234719 -10.614233 2.266229 21.843718 -9.277600 1.142000 14.591800 -88.095496 -5.080582 46.248138 31.015984 -41.565602 -10.994165 0.112951 0.289910 -5.196366 -7.125000 0.000000 0.000000 64.265221 -6.304680 -4.279226 -20.347989 30.018944 -5.248135 0.107915 -0.574006 -14.823184 7.125000 0.000000 0.000000 
1.222180 17.736543 -21.226587 13.852610 -5.647838 3.600707 -33.633527 4.477684 -9.409185 -0.785766 4.691025 11.123947 -2.590837 13.995066 3.683159 0.040200 1.294800 3.560300 -8.353497 6.010294 -29.337294 -12.800017 -18.681382 66.524894 3.017566 -15.376835 4.582340 -0.014900 0.788100 -2.166000 10.058562 0.841207 0.920938 9.925483 0.520057 -4.276061 -10.675642 2.349970 21.830749 -9.293900 1.169000 14.604600 -87.963962 -5.279405 45.847710 31.429064 -41.920675 -11.259782 0.118581 0.292677 -5.364169 -7.125000 0.000000 0.000000 64.462163 -6.800584 -4.410118 -20.208703 29.846480 -5.180273 0.106296 -0.573760 -14.540521 7.125000 0.000000 0.000000 
1.223966 17.722455 -21.134519 13.920905 -5.586988 3.647423 -33.734765 4.480476 -9.321081 -0.755250 4.823499 11.504333 -2.609850 13.963448 3.244379 0.034100 1.191600 3.276300 -8.347633 6.140724 -30.070433 -12.397879 -18.519036 65.371217 3.050739 -15.163991 3.230515 -0.032100 1.157200 -3.181400 10.072135 0.784193 0.871964 10.019785 0.496744 -4.324122 -10.698728 2.415012 21.831155 -9.286000 1.188300 14.616100 -87.820019 -5.442970 45.500821 31.857503 -42.282640 -11.537880 0.125825 0.293878 -5.495054 -7.125000 0.000000 0.000000 64.658395 -7.300824 -4.558148 -20.062671 29.665442 -5.110292 0.104711 -0.573970 -14.294138 7.125000 0.000000 0.000000 
1.225057 17.709557 -21.042550 13.982112 -5.516975 3.699379 -33.827067 4.499519 -9.196998 -0.730509 4.925629 11.800885 -2.620572 13.914122 2.839367 0.029500 1.109100 3.048900 -8.324640 6.252648 -30.756594 -11.955585 -18.329658 64.058647 3.104130 -15.109040 2.010693 -0.052500 1.478400 -4.066300 10.088909 0.726775 0.818525 10.111866 0.473662 -4.382278 -10.707908 2.477475 21.807139 -9.266700 1.206200 14.607600 -87.662094 -5.573582 45.205146 32.314807 -42.661764 -11.836362 0.132869 0.294344 -5.658525 -7.125000 0.000000 0.000000 64.852910 -7.789317 -4.741524 -19.903164 29.468059 -5.035545 0.103241 -0.574754 -14.049488 7.125000 0.000000 0.000000 
1.225355 17.698942 -20.950284 14.028645 -5.440031 3.770760 -33.901188 4.521468 -9.022189 -0.715455 4.982843 11.971283 -2.625691 13.863320 2.495432 0.027300 1.067200 2.933600 -8.279425 6.345276 -31.405223 -11.473479 -18.110047 62.587148 3.179003 -15.199732 0.936621 -0.071700 1.726900 -4.751500 10.110920 0.667185 0.765350 10.201405 0.448618 -4.428561 -10.708217 2.533009 21.785189 -9.243200 1.221500 14.598900 -87.492000 -5.690314 44.957031 32.790096 -43.048339 -12.148576 0.139606 0.294004 -5.843430 -7.125000 0.000000 0.000000 65.047790 -8.259138 -4.958932 -19.737231 29.262229 -4.958577 0.102056 -0.575635 -13.832116 7.125000 0.000000 0.000000 
1.224958 17.691402 -20.857621 14.057916 -5.363017 3.852295 -33.954719 4.566662 -8.781900 -0.712030 4.986623 11.991485 -2.623907 13.809598 2.235133 0.026400 1.049500 2.885000 -8.208054 6.428052 -32.000075 -10.952782 -17.857259 60.959486 3.277728 -15.424627 -0.012902 -0.088800 1.922500 -5.291600 10.139145 0.613052 0.713298 10.288009 0.426533 -4.478956 -10.724467 2.587265 21.731568 -9.229400 1.234900 14.574500 -87.315035 -5.786046 44.752206 33.296927 -43.452190 -12.482559 0.143937 0.294056 -6.091106 -7.125000 0.000000 0.000000 65.241794 -8.702807 -5.227901 -19.556678 29.037904 -4.875378 0.100714 -0.576245 -13.613215 7.125000 0.000000 0.000000 
1.223767 17.687235 -20.764462 14.077829 -5.268608 3.949765 -33.994294 4.626973 -8.465050 -0.721584 4.929851 11.841443 -2.612412 13.744131 2.075275 0.027600 1.071900 2.946800 -8.122779 6.476166 -32.546095 -10.397342 -17.568368 59.184300 3.394114 -15.747564 -0.826505 -0.101700 2.056900 -5.663000 10.172964 0.557380 0.654694 10.376916 0.404057 -4.532827 -10.765939 2.647635 21.659927 -9.232400 1.251100 14.543700 -87.135689 -5.859438 44.580778 33.827369 -43.865649 -12.832673 0.144375 0.294829 -6.335714 -7.125000 0.000000 0.000000 65.429773 -9.141883 -5.517289 -19.374892 28.810518 -4.792090 0.099732 -0.576845 -13.423025 7.125000 0.000000 0.000000 
1.221982 17.685449 -20.670906 14.095141 -5.198232 4.064881 -34.033588 4.714670 -8.084022 -0.744277 4.808251 11.509495 -2.596596 13.687757 2.017298 0.032300 1.160100 3.189600 -8.040248 6.529003 -33.052042 -9.811842 -17.241224 57.274591 3.519527 -16.123402 -1.513667 -0.110700 2.144900 -5.906100 10.203419 0.521792 0.598218 10.455815 0.391174 -4.584163 -10.841792 2.701779 21.612317 -9.264600 1.265800 14.534900 -86.945819 -5.923707 44.455388 34.370829 -44.280573 -13.194480 0.145215 0.294725 -6.564317 -7.125000 0.000000 0.000000 65.625350 -9.564008 -5.849351 -19.186014 28.573739 -4.706303 0.098642 -0.577235 -13.247237 7.125000 0.000000 0.000000 
1.219601 17.685846 -20.576854 14.124597 -5.118701 4.192651 -34.085193 4.831854 -7.623911 -0.778574 4.619478 10.990591 -2.569090 13.614455 2.074470 0.033800 1.186800 3.263000 -7.976001 6.558271 -33.505785 -9.202797 -16.874601 55.245063 3.645678 -16.513067 -2.070064 -0.116800 2.203000 -6.067000 10.232414 0.483659 0.541467 10.539377 0.376852 -4.629679 -10.919148 2.770803 21.547981 -9.296100 1.286600 14.522900 -86.766574 -5.972665 44.342025 34.931707 -44.699812 -13.569883 0.144339 0.294854 -6.792517 -7.125000 0.000000 0.000000 65.808977 -9.962630 -6.206282 -18.984265 28.319705 -4.615082 0.097335 -0.577155 -13.073618 7.125000 0.000000 0.000000 
1.216823 17.688029 -20.482405 14.165945 -5.025013 4.329033 -34.149223 4.967959 -7.067621 -0.823516 4.358323 10.271434 -2.531005 13.530192 2.247249 0.030400 1.126400 3.096700 -7.936747 6.568669 -33.898172 -8.576486 -16.467756 53.112084 3.760649 -16.867286 -2.489399 -0.121000 2.242700 -6.176800 10.255582 0.441844 0.485887 10.616050 0.359669 -4.670014 -10.985300 2.829679 21.501696 -9.324100 1.303600 14.523300 -86.585048 -6.006502 44.257394 35.499834 -45.115873 -13.953877 0.144941 0.294605 -6.974407 -7.125000 0.000000 0.000000 65.991275 -10.325054 -6.595135 -18.768660 28.047838 -4.518713 0.095917 -0.577014 -12.898252 7.125000 0.000000 0.000000 
